<?xml version="1.0" encoding="utf-8"?>
<!-- Generator: Adobe Illustrator 19.2.1, SVG Export Plug-In . SVG Version: 6.00 Build 0)  -->
<svg version="1.1" id="Layer_1" xmlns="http://www.w3.org/2000/svg" xmlns:xlink="http://www.w3.org/1999/xlink" x="0px" y="0px"
	 viewBox="0 0 285.1 64.7" style="enable-background:new 0 0 285.1 64.7;" xml:space="preserve">
<style type="text/css">
	.st0{fill:#FFFFFF;}
</style>
<g>
	<g>
		<path class="st0" d="M22,0.4l-5.3,26.6c3.4-4.4,7.6-6.6,12.2-6.6c7.4,0,10.3,5.9,10.3,14.7c0,9.1-3.1,18.3-9.8,24
			c-3.9,3.3-8.9,5.4-14.6,5.4C5.8,64.5,0,59.5,0,50.2c0-3.6,0.9-9.3,2-14.6L9,0.4H22z M23.9,32c-4.6,0-12,10.6-12,17.6
			c0,2.9,1.2,4.2,3.9,4.2c2.4,0,4.2-1.1,5.5-2.5c3.2-3.6,4.9-12.2,4.9-15.9C26.2,33.1,25.4,32,23.9,32z"/>
		<path class="st0" d="M63.6,21.5l-8.4,42.2H42.1l8.4-42.2H63.6z M59.8,0c4.3,0,7.4,3.4,7.4,7.8c0,4.5-3.1,7.8-7.4,7.8
			c-4.2,0-7.4-3.3-7.4-7.7C52.3,3.4,55.5,0,59.8,0z"/>
		<path class="st0" d="M90.1,62.3c-2.8,1.3-7,1.8-9.8,1.8c-8.9,0-12.7-4.6-12.7-11.8c0-2.7,0.6-6.8,1.4-10.7l8.6-41.3h13l-8.9,42.8
			c-0.5,2.3-1,5.3-1,6.9c0,2.2,0.9,3.1,3,3.1c1.1,0,2.5-0.2,3.8-0.7L90.1,62.3z"/>
		<path class="st0" d="M109.4,0.4l-8.9,44.4h-5.2l8.9-44.4H109.4z M104,29.7c5-4.8,9-9.4,11.9-13.8h6.2c-3.4,4.8-7.5,9.5-12.6,14.1
			l8.3,14.9h-6.1L104,29.7z"/>
		<path class="st0" d="M136.7,44c-1.8,0.8-3.8,1.2-5.6,1.2c-4.6,0-6.4-2.5-6.4-6.4c0-1.8,0.4-4.5,1-7.1l6.4-31.3h5.2l-6.6,31.9
			c-0.4,1.9-0.8,4.3-0.8,5.6c0,2,0.7,2.7,2.4,2.7c0.8,0,2-0.2,3.1-0.6L136.7,44z"/>
		<path class="st0" d="M156.6,44.8l1.4-6.4c-2.4,4.2-6.1,7-10.3,7c-3.7,0-5.5-2.2-5.5-6.5c0-2,0.4-4.6,0.9-7.3l3.2-15.8h5.3
			L148.4,32c-0.4,1.6-1,5.2-1,6.5c0,1.5,0.6,2.2,1.9,2.2c3.2,0,9.1-5.2,11.1-15.5l1.9-9.4h5.2l-5.8,28.9H156.6z"/>
		<path class="st0" d="M184.6,0.4l-4.2,20.8c2.6-3.9,6.2-6,10-6c5.1,0,7.1,3.8,7.1,9.6c0,5.9-2,12.5-6.2,16.5
			c-2.4,2.4-5.7,4.1-9.4,4.1c-5.3,0-9.1-3.5-9.1-9.2c0-2.4,0.7-6.5,1.4-10.1l5.1-25.6H184.6z M189.2,19.8c-5.2,0-11.4,8.5-11.4,15.8
			c0,3.5,1.4,5.2,4.4,5.2c2.3,0,4.1-1,5.3-2.2c3.2-3.4,4.6-11.1,4.6-14.7C192,21.1,191.2,19.8,189.2,19.8z"/>
		<path class="st0" d="M215.4,0.4l-4.2,20.8c2.6-3.9,6.2-6,10-6c5.1,0,7.1,3.8,7.1,9.6c0,5.9-2,12.5-6.2,16.5
			c-2.4,2.4-5.7,4.1-9.4,4.1c-5.3,0-9.1-3.5-9.1-9.2c0-2.4,0.7-6.5,1.4-10.1l5.1-25.6H215.4z M220.1,19.8c-5.2,0-11.4,8.5-11.4,15.8
			c0,3.5,1.4,5.2,4.4,5.2c2.3,0,4.1-1,5.3-2.2c3.2-3.4,4.6-11.1,4.6-14.7C222.9,21.1,222.1,19.8,220.1,19.8z"/>
		<path class="st0" d="M253.9,39.8c-3.2,3.5-7.4,5.7-11.7,5.7c-6,0-9-3.9-9-10c0-4.1,1.4-9.5,3.5-13.2c2.1-3.8,6-7.1,11.3-7.1
			c4.1,0,8.1,2,8.1,7c0,7.2-8.5,9.7-17.6,10.6c-0.2,1.2-0.2,2.3-0.2,3.1c0,3.8,1.2,5.2,4.2,5.2c2.8,0,5.7-1.3,8.6-4.2L253.9,39.8z
			 M239.4,28.4c7.6-0.7,11.7-3.1,11.7-6.3c0-1.6-1-2.7-3.5-2.7c-2.7,0-4.8,1.4-6,3.3C240.7,24.1,239.8,26.6,239.4,28.4z"/>
		<path class="st0" d="M270.2,15.8l-1.4,6.4c2.5-4.5,6.1-7.1,10.3-7.1c3.9,0,6,2.3,6,7.1c0,3.8-1.3,10.3-4.3,22.5h-5.2
			c3-13.5,4.3-19.8,4.3-22c0-2-0.9-2.8-2.1-2.8c-3.3,0-9.3,5.5-11.3,15.5l-1.9,9.4h-5.3l5.8-28.9H270.2z"/>
	</g>
	<g>
		<path class="st0" d="M110,56.3v1.2h-3.5v2.3h3.2v1.2h-3.2v2.4h3.5v1.2h-4.9v-8.3H110z"/>
		<path class="st0" d="M119.9,56.3v1.2h-2.5v7H116v-7h-2.6v-1.2H119.9z"/>
		<path class="st0" d="M130.9,56.3l2.2,5.9l2.2-5.9h1.9l0.5,8.3h-1.4l-0.3-6.7l-2.3,6.3h-1.3l-2.3-6.3l-0.3,6.7h-1.3l0.5-8.3H130.9z
			"/>
		<path class="st0" d="M146.8,56.3v1.2h-3.5v2.3h3.2v1.2h-3.2v2.4h3.5v1.2H142v-8.3H146.8z"/>
		<path class="st0" d="M154.1,56.3c0.8,0,1.4,0.1,1.9,0.4c0.5,0.3,0.9,0.9,0.9,1.8c0,1.1-0.6,2-1.8,2.2c1.1,0.2,1.5,1.4,1.9,3.8
			h-1.5c-0.5-2.4-0.7-3.2-1.8-3.2h-1.3v3.2H151v-8.3H154.1z M152.4,60.2h1.1c1.2,0,2-0.3,2-1.5c0-0.5-0.1-0.8-0.3-1
			c-0.2-0.2-0.5-0.2-1-0.2h-1.7V60.2z"/>
		<path class="st0" d="M162.6,56.3v3.4h0.8l2.7-3.4h1.6l-3.1,4l3.3,4.3h-1.7l-2.8-3.6h-0.8v3.6h-1.4v-8.3H162.6z"/>
		<path class="st0" d="M176.5,56.3v1.2H173v2.3h3.2v1.2H173v2.4h3.5v1.2h-4.9v-8.3H176.5z"/>
		<path class="st0" d="M182.1,56.3v7h3.5v1.2h-4.9v-8.3H182.1z"/>
		<path class="st0" d="M190.7,56.3v8.3h-1.4v-8.3H190.7z"/>
		<path class="st0" d="M201.6,60.1v4.1c-0.7,0.3-1.7,0.5-2.8,0.5c-1.3,0-2.2-0.3-2.8-0.8c-0.8-0.8-1-1.9-1-3.3c0-1.5,0.2-2.7,1-3.4
			c0.6-0.5,1.4-0.9,2.7-0.9c1.1,0,2.1,0.2,2.7,0.9l-0.8,1c-0.5-0.4-1.2-0.6-2-0.6c-0.9,0-1.3,0.2-1.6,0.5c-0.4,0.4-0.5,1-0.5,2.5
			c0,1.7,0.2,2.3,0.6,2.6c0.3,0.3,0.8,0.5,1.6,0.5c0.5,0,1.2-0.1,1.6-0.2v-2.1h-1.8v-1.1H201.6z"/>
		<path class="st0" d="M212.6,56.3v3.4h0.8l2.7-3.4h1.6l-3.1,4l3.3,4.3h-1.7l-2.8-3.6h-0.8v3.6h-1.4v-8.3H212.6z"/>
		<path class="st0" d="M227.1,63.8c-0.6,0.6-1.4,0.9-2.7,0.9c-1.2,0-2.1-0.3-2.6-0.9c-0.7-0.7-0.9-1.8-0.9-3.3s0.2-2.7,1-3.5
			c0.6-0.6,1.4-0.9,2.7-0.9c1.3,0,2.1,0.4,2.6,0.9c0.7,0.7,0.9,1.8,0.9,3.3S227.9,63,227.1,63.8z M226.1,57.8
			c-0.3-0.3-0.8-0.5-1.5-0.5s-1.2,0.2-1.6,0.5c-0.4,0.5-0.6,1.2-0.6,2.7c0,1.3,0.1,2.1,0.6,2.6c0.3,0.3,0.8,0.5,1.5,0.5
			c0.7,0,1.2-0.2,1.6-0.5c0.4-0.5,0.6-1.2,0.6-2.6C226.7,59.1,226.5,58.2,226.1,57.8z"/>
		<path class="st0" d="M234.1,56.3l3.7,6.4l0-6.4h1.3v8.3h-1.8l-3.7-6.4l0,6.4h-1.4v-8.3H234.1z"/>
		<path class="st0" d="M247.7,57.8c-0.6-0.4-1.3-0.5-1.9-0.5c-0.8,0-1.4,0.2-1.4,1.1c0,1.6,4.2,0.9,4.2,3.8c0,0.9-0.4,1.5-1,1.9
			c-0.6,0.4-1.3,0.5-2.1,0.5c-0.9,0-2-0.2-2.6-0.8l0.7-1c0.6,0.5,1.4,0.7,2.1,0.7c0.8,0,1.5-0.2,1.5-1.2c0-1.8-4.2-1-4.2-3.9
			c0-0.8,0.3-1.3,0.9-1.7c0.6-0.4,1.3-0.6,2.1-0.6c0.8,0,1.8,0.2,2.4,0.7L247.7,57.8z"/>
		<path class="st0" d="M257.4,56.3v1.2H254v2.3h3.2v1.2H254v2.4h3.5v1.2h-4.9v-8.3H257.4z"/>
		<path class="st0" d="M264.7,56.3c0.7,0,1.4,0.1,1.9,0.5c0.5,0.4,0.9,1,0.9,2.2c0,1.1-0.3,1.8-0.9,2.2c-0.5,0.4-1.1,0.5-1.9,0.5
			h-1.6v2.9h-1.4v-8.3H264.7z M263.1,60.5h1.6c0.5,0,0.8-0.1,1-0.3c0.2-0.2,0.3-0.6,0.3-1.2c0-0.7-0.1-1-0.4-1.2
			c-0.2-0.2-0.5-0.2-1.1-0.2h-1.6V60.5z"/>
		<path class="st0" d="M277,56.3v1.2h-2.5v7h-1.4v-7h-2.6v-1.2H277z"/>
	</g>
</g>
</svg>