<?xml version="1.0" standalone="no"?>
<!DOCTYPE svg PUBLIC "-//W3C//DTD SVG 20010904//EN"
 "http://www.w3.org/TR/2001/REC-SVG-20010904/DTD/svg10.dtd">
<svg version="1.0" xmlns="http://www.w3.org/2000/svg"
 width="890.000000pt" height="890.000000pt" viewBox="0 0 890.000000 890.000000"
 preserveAspectRatio="xMidYMid meet">
<metadata>
Created by potrace 1.11, written by Peter Selinger 2001-2013
</metadata>
<g transform="translate(0.000000,890.000000) scale(0.100000,-0.100000)"
fill="#000000" stroke="none">
<path d="M0 4450 l0 -4450 4450 0 4450 0 0 4450 0 4450 -4450 0 -4450 0 0
-4450z m4890 3453 c0 -5 -128 -649 -284 -1433 -156 -784 -283 -1426 -282
-1427 1 -1 23 24 49 56 79 99 237 250 346 331 175 132 405 238 621 285 102 22
384 31 492 15 464 -68 760 -399 872 -976 39 -206 50 -339 50 -619 -1 -271 -15
-454 -54 -682 -74 -432 -213 -836 -403 -1166 -371 -649 -939 -1093 -1608
-1256 -425 -103 -889 -91 -1249 34 -650 227 -978 794 -930 1610 16 263 48 520
110 885 23 135 805 4084 851 4303 l11 47 704 0 c387 0 704 -3 704 -7z"/>
<path d="M4958 4456 c-339 -120 -784 -660 -1011 -1227 -93 -230 -135 -406
-144 -594 -9 -196 28 -335 108 -412 79 -75 224 -109 389 -92 310 31 539 218
715 584 245 509 403 1408 288 1640 -59 118 -189 156 -345 101z"/>
</g>
</svg>
