<svg xmlns="http://www.w3.org/2000/svg" width="512" height="512">
  <text transform="translate(168.783 543.81)">
    <tspan x="0" y="0" fill="#FF0" font-family="'Verdana-Bold'" font-size="20">simpleicon.com</tspan><tspan x="-159.6" y="24" fill="#FF0" font-family="'Verdana'" font-size="20">Collection Of Flat Icon, Symbols And Glyph Icons</tspan>
  </text>
  <path fill="#3b5998" d="M223.2 71.2c16-15.3 39-20.4 60.5-21 22.8-.3 45.6-.2 68.4-.2.4 24 .4 48.2 0 72.2h-44c-9.3-.6-19 6.5-20.6 15.7-.2 16 0 32 0 48H352c-1.6 23.4-4.5 46.5-8 69.6-19 .2-38 0-57 0-.3 68.8 0 137.5-.3 206-28.3.2-56.7 0-85 .2-.6-68.8 0-137.5-.3-206-14-.3-27.7 0-41.6-.3v-69.2c14-.2 27.7 0 41.6 0 .4-22.6-.5-45 .4-67.5 1.4-17.6 8-35.5 21.4-47.8z"/>
</svg>