<svg xmlns="http://www.w3.org/2000/svg" width="500" height="500">
  <path fill='#666' d="M217.4 493c-68.58-8.26-113.25-27.8-152.18-66.53C26.77 388.2 6.42 342.64.92 282.54c-2.33-25.62-.2-57 5.68-83.2 10-44.65 31.4-83.43 63.56-115.2 44.5-43.94 99-67.7 171.06-74.62C380.6-3.83 486.34 70.14 498.86 189.74c6.1 58.12-12.44 113.97-51.02 153.8-37.54 38.76-93 57.14-131.9 43.73-12.53-4.3-24.74-16.66-26.33-26.6l-1.1-7.5-10.4 9.56c-36.36 33.25-94.42 33.52-127.35.6-21-21.03-29.8-49.04-28.25-90.04 2.42-64.6 32.7-121.3 79.54-149.1 19.14-11.4 34.2-15.3 59.1-15.2 19.04 0 22.5.6 31.6 4.8 10.5 4.9 16.36 9.6 23.7 19 2.3 2.94 4.5 5.03 4.83 4.62.35-.4 1.8-4.5 3.2-9.1l2.6-8.36 32.94-.5c18.14-.3 32.97 0 32.97.63s-2.48 9.63-5.5 20c-14.15 48.77-45.1 166.55-46 175.04-1.3 12.7 2.95 17.4 15.74 17.4 22.93-.06 49.77-22.9 64.8-55.14 10.54-22.6 14.17-42 13.13-70.2-1.05-28.5-3.95-40.5-15.3-63.1-16.03-31.93-41.95-54.4-75.7-65.6-63.5-21-138.57-12.7-191.27 21.24-27.24 17.54-46.05 37.7-61.5 65.92-29.98 54.7-28.8 134.8 2.73 187.9 8.8 14.84 27.9 35.8 42.43 46.54 35.7 26.4 88.23 39.14 143.05 34.67 44-3.6 75.72-12.5 108.1-30.4 16.3-9 18.25-9.6 20.56-6.9 1.4 1.63 9.04 12.42 16.95 23.95 11.7 17.02 13.97 21.46 12.16 23.64-3.47 4.14-45.73 24.4-61.56 29.5-22.25 7.1-56 14.15-81.4 17-21 2.36-62.9 3.12-77.05 1.4zm23.85-166.26c11.38-5.7 23.24-17.9 32.1-33 15.1-25.76 28.9-78.53 26-99.6-1.52-11.1-7.3-21.8-14.6-27-4.98-3.55-8.43-4.33-19.08-4.33-10.96 0-14.4.9-22.06 5.4-13.7 8.1-24.3 20.5-33.5 39.1-12.5 25.4-18 46.1-19.1 71.9-1.4 32.2 3.9 44.8 21.2 50.9 8.5 3 19.1 1.8 29.2-3.2z"/>
</svg>